# xmcd CD database file
#
# Track frame offsets:
#	150
#	11261
#	31440
#	52744
#	65475
#	93069
#	107176
#	130422
#	149203
#	178467
#	195884
#
# Disc length: 2842 seconds
#
# Revision: 0
# Processed by: cddbd v1.5.1PL2 Copyright (c) Steve Scherf et al.
# Submitted via: CDex 1.51
#
DISCID=960b180b
DTITLE=Ligia Piro - Baby!
DYEAR=2006
DGENRE=Jazz
TTITLE0=Love Me or Leave Me
TTITLE1=You Don´t Know What Love Is
TTITLE2=Pra machucar meu coracao
TTITLE3=Call Me Irresponsable
TTITLE4=PS I Love You
TTITLE5=About a Girl
TTITLE6=Round Midnight
TTITLE7=Put Your Head On My Shoulder
TTITLE8=At Last
TTITLE9=The Man I Love
TTITLE10=Samba de Orly
EXTD=YEAR: 2006
EXTT0=
EXTT1=
EXTT2=
EXTT3=
EXTT4=
EXTT5=
EXTT6=
EXTT7=
EXTT8=
EXTT9=
EXTT10=
PLAYORDER=
